#N canvas 757 219 836 647 12;
#X obj 215 138 vcf~ 70;
#X obj 215 176 vcf~ 70;
#X obj 215 108 noise~;
#X obj 155 202 vsl 15 128 0.01 10 0 0 empty empty empty 0 -9 0 10 -262144
-1 -1 10157 1;
#X floatatom 155 346 5 0 0 0 - - -;
#X text 35 202 Additional Gain;
#X obj 215 334 *~ 1;
#X obj 215 419 dac~;
#X obj 401 18 1_FreqCalc;
#X obj 292 102 r~ myFreq;
#X obj 401 41 2_DipoleAngle;
#X obj 215 211 *~;
#X obj 278 174 r~ myAngleGain;
#X obj 517 18 3_SpeedGainCalc;
#X obj 215 253 *~;
#X obj 265 219 r~ mySpGain;
#X obj 517 42 4_DistanceGainCalc;
#X obj 316 269 r~ myDistanceGain;
#X obj 215 299 /~;
#X obj 627 249 hsl 128 15 0 30 0 0 speed empty Speed -2 -8 0 10 -262144
-1 -1 0 1;
#X obj 479 365 hsl 128 15 0.0001 0.03 1 0 diameter empty Diameter -2
-8 0 10 -262144 -1 -1 0 1;
#X obj 479 438 hsl 128 15 -180 180 0 0 angle empty Angle -2 -8 0 10
-262144 -1 -1 9525 1;
#X obj 479 505 hsl 128 15 1 10 0 0 distance empty Distance -2 -8 0
10 -262144 -1 -1 1411 1;
#X floatatom 617 347 5 0 0 0 - - -;
#X obj 616 395 loadbang;
#X msg 616 419 90;
#X obj 622 462 loadbang;
#X msg 622 486 2;
#X obj 138 138 loadbang;
#X obj 665 350 print Diameter;
#X obj 544 159 loadbang;
#X msg 544 183 0;
#X obj 683 221 print Speed;
#X obj 617 157 receive speedUnity;
#X obj 617 323 receive diameterUnity;
#X obj 619 193 * 0.5;
#X msg 138 162 10;
#X connect 0 0 1 0;
#X connect 1 0 11 0;
#X connect 2 0 0 0;
#X connect 3 0 4 0;
#X connect 3 0 6 1;
#X connect 6 0 7 0;
#X connect 6 0 7 1;
#X connect 9 0 0 1;
#X connect 9 0 1 1;
#X connect 11 0 14 0;
#X connect 12 0 11 1;
#X connect 14 0 18 0;
#X connect 15 0 14 1;
#X connect 17 0 18 1;
#X connect 18 0 6 0;
#X connect 23 0 20 0;
#X connect 24 0 25 0;
#X connect 25 0 21 0;
#X connect 26 0 27 0;
#X connect 27 0 22 0;
#X connect 28 0 36 0;
#X connect 30 0 31 0;
#X connect 31 0 35 0;
#X connect 33 0 35 0;
#X connect 34 0 23 0;
#X connect 34 0 29 0;
#X connect 35 0 32 0;
#X connect 35 0 19 0;
#X connect 36 0 3 0;
