#N canvas 1416 483 450 300 12;
#X obj 84 45 receive speed;
#X obj 217 47 receive diameter;
#X floatatom 84 69 5 0 0 0 - - -;
#X floatatom 217 71 5 0 0 0 - - -;
#X obj 217 94 print Diameter_r;
#X obj 84 93 print Speed_R;
#X connect 0 0 2 0;
#X connect 1 0 3 0;
#X connect 2 0 5 0;
#X connect 3 0 4 0;
