#N canvas 286 163 1346 636 12;
#X obj 616 454 *~ 1;
#X obj 616 479 dac~;
#X obj 550 278 vsl 15 128 0.01 100 0 0 empty empty Add._Gain 0 -9 0
10 #fcfcfc #000000 #000000 0 1;
#X obj 948 154 vsl 15 128 0 30 0 0 empty empty empty 0 -9 0 10 #fcfcfc
#000000 #000000 0 1;
#X obj 948 318 line~;
#X floatatom 1009 291 0 0 0 0 - - - 0;
#X obj 948 342 s~ mySpeed;
#X obj 78 360 vsl 15 128 0.0001 0.03 0 0 empty empty empty 0 -9 0 10
#fcfcfc #000000 #000000 0 1;
#X obj 78 496 s myDiameter;
#X obj 697 266 r~ myFreq;
#X obj 616 366 *~;
#X floatatom 550 440 5 0 0 0 - - - 0;
#X obj 616 394 *~;
#X obj 661 366 r~ mySpGain;
#X obj 676 336 r~ myAngleGain;
#X obj 616 426 /~;
#X obj 663 401 r~ myDistanceGain;
#N canvas 229 327 751 389 Angle 0;
#X obj 89 161 /~ 360;
#X obj 89 211 cos~;
#X obj 92 89 hsl 128 15 -180 180 0 0 empty empty Angle -2 -8 0 10 #fcfcfc
#000000 #000000 0 1;
#X obj 89 137 line~;
#X msg 89 111 \$1 50;
#X obj 188 115 r myMet;
#X obj 188 140 snapshot~;
#X floatatom 188 164 0 0 0 0 - - - 0;
#X obj 226 208 r myMet;
#X obj 226 233 snapshot~;
#X floatatom 226 257 0 0 0 0 - - - 0;
#X obj 89 261 s~ myAngleGain;
#X obj 89 54 inlet;
#X obj 89 185 +~ 0.25;
#X obj 89 235 *~;
#X text 287 48 The sound source for this type of aeroacoustic sound
is a dipole. This is created by multiplying the gain by sin squared
of the elevation angle.;
#X connect 0 0 13 0;
#X connect 1 0 14 0;
#X connect 1 0 14 1;
#X connect 2 0 4 0;
#X connect 3 0 6 0;
#X connect 3 0 0 0;
#X connect 4 0 3 0;
#X connect 5 0 6 0;
#X connect 6 0 7 0;
#X connect 8 0 9 0;
#X connect 9 0 10 0;
#X connect 12 0 2 0;
#X connect 13 0 1 0;
#X connect 14 0 9 0;
#X connect 14 0 11 0;
#X restore 371 146 pd Angle;
#X obj 374 100 hsl 128 15 -180 180 0 0 empty empty Angle -2 -8 0 10
#fcfcfc #000000 #000000 0 1;
#X floatatom 371 121 0 0 0 0 - - - 0;
#X obj 78 308 loadbang;
#X obj 615 297 vcf~ 70;
#X obj 616 335 vcf~ 70;
#X msg 78 332 0.005;
#N canvas 304 63 706 441 FreqCalc 0;
#X obj 105 20 r~ mySpeed;
#X obj 105 44 *~ 0.189;
#X obj 199 17 r myDiameter;
#X obj 105 134 s~ myFreq;
#X text 35 227 Frequency of aeroacoustic tone calculated using a Strouhal
number of 0.189. Frequency is depended on speed and diameter;
#X msg 199 41 \$1 20;
#X obj 199 65 line~;
#X obj 105 110 /~;
#X connect 0 0 1 0;
#X connect 1 0 7 0;
#X connect 2 0 5 0;
#X connect 5 0 6 0;
#X connect 6 0 7 1;
#X connect 7 0 3 0;
#X restore 75 214 pd FreqCalc;
#N canvas 409 116 490 365 SpeedGain 0;
#X obj 53 42 r~ mySpeed;
#X obj 89 78 *~;
#X obj 126 78 *~;
#X obj 53 79 *~;
#X obj 53 106 *~;
#X obj 53 133 *~;
#X obj 51 183 s~ mySpGain;
#X obj 52 159 /~ 7.3e+08;
#X text 45 263 The gain of the aeroacoustic sound is proportional to
the 6th power of the speed;
#X text 132 158 Normalised for a max speed of 30 m/s;
#X connect 0 0 1 0;
#X connect 0 0 1 1;
#X connect 0 0 2 0;
#X connect 0 0 2 1;
#X connect 0 0 3 1;
#X connect 0 0 3 0;
#X connect 1 0 4 1;
#X connect 2 0 5 1;
#X connect 3 0 4 0;
#X connect 4 0 5 0;
#X connect 5 0 7 0;
#X connect 7 0 6 0;
#X restore 76 246 pd SpeedGain;
#N canvas 518 184 489 310 DistGain 0;
#X obj 51 125 line~;
#X msg 51 99 \$1 50;
#X obj 51 149 *~;
#X obj 51 176 s~ myDistanceGain;
#X text 42 227 The gain of the aeroacoustic sound is proportional to
the inverse square of the distance;
#X obj 51 74 r myDist;
#X connect 0 0 2 0;
#X connect 0 0 2 1;
#X connect 1 0 0 0;
#X connect 2 0 3 0;
#X connect 5 0 1 0;
#X restore 76 179 pd DistGain;
#X text 487 525 The actual sound effect with parameters derived from
physics;
#X text 984 194 Control the speed of the sound source;
#X text 456 66 Control the angle of the sound source;
#X text 105 402 Control the diameter of the sound source;
#X obj 996 513 hsl 128 15 1 10 0 0 empty empty empty -2 -8 0 10 #fcfcfc
#000000 #000000 0 1;
#X msg 993 487 3;
#X obj 993 461 loadbang;
#X obj 993 533 s myDist;
#X text 1004 576 Control the distance between source and observer;
#X floatatom 1067 533 0 0 0 0 - - - 0;
#X floatatom 106 470 0 0 0 0 - - - 0;
#X text 1016 268 Speed in metres per second;
#X text 1095 483 Distance in metres;
#X text 119 451 Diameter in metres;
#X text 446 120 Angle in degrees;
#X obj 615 267 noise~;
#X obj 340 53 loadbang;
#X msg 340 77 90;
#X obj 946 9 bng 45 250 50 0 empty empty empty 17 7 0 10 #c4fcc4 #000000
#000000;
#X obj 948 126 line;
#X obj 947 57 t b b;
#X msg 1002 106 0 100;
#X obj 1002 83 delay 200;
#X text 1008 19 Test sweep;
#X obj 511 223 loadbang;
#X msg 511 247 50;
#X text 431 321 Additional Gain;
#X obj 84 54 metro 100;
#X obj 84 79 s myMet;
#X obj 84 31 tgl 15 0 empty empty empty 17 7 0 10 #fcfcfc #000000 #000000
0 1;
#X obj 83 9 loadbang;
#X obj 792 260 r myMet;
#X obj 792 283 snapshot~;
#X floatatom 793 306 0 0 0 0 - - - 0;
#X msg 948 292 \$1 10;
#X msg 948 81 30 100;
#X connect 0 0 1 0;
#X connect 0 0 1 1;
#X connect 2 0 0 1;
#X connect 2 0 11 0;
#X connect 3 0 61 0;
#X connect 3 0 5 0;
#X connect 4 0 6 0;
#X connect 7 0 8 0;
#X connect 7 0 37 0;
#X connect 9 0 21 1;
#X connect 9 0 22 1;
#X connect 9 0 59 0;
#X connect 10 0 12 0;
#X connect 12 0 15 0;
#X connect 13 0 12 1;
#X connect 14 0 10 1;
#X connect 15 0 0 0;
#X connect 16 0 15 1;
#X connect 18 0 19 0;
#X connect 19 0 17 0;
#X connect 20 0 23 0;
#X connect 21 0 22 0;
#X connect 22 0 10 0;
#X connect 23 0 7 0;
#X connect 31 0 34 0;
#X connect 31 0 36 0;
#X connect 32 0 31 0;
#X connect 33 0 32 0;
#X connect 42 0 21 0;
#X connect 43 0 44 0;
#X connect 44 0 18 0;
#X connect 45 0 47 0;
#X connect 46 0 3 0;
#X connect 47 0 62 0;
#X connect 47 1 49 0;
#X connect 48 0 46 0;
#X connect 49 0 48 0;
#X connect 51 0 52 0;
#X connect 52 0 2 0;
#X connect 54 0 55 0;
#X connect 56 0 54 0;
#X connect 57 0 56 0;
#X connect 58 0 59 0;
#X connect 59 0 60 0;
#X connect 61 0 4 0;
#X connect 62 0 46 0;
