#N canvas 674 280 574 410 12;
#X obj 99 159 *~ 0.189;
#X obj 99 249 s~ myFreq;
#X text 35 304 Frequency of aeroacoustic tone calculated using a Strouhal
number of 0.189. Frequency is depended on speed and diameter;
#X msg 260 169 \$1 20;
#X obj 260 193 line~;
#X obj 99 225 /~;
#X obj 393 61 metro 100;
#X obj 393 86 s myMet;
#X obj 393 38 tgl 15 0 empty empty empty 17 7 0 10 #fcfcfc #000000
#000000 0 1;
#X obj 392 16 loadbang;
#X obj 15 138 r myMet;
#X obj 15 161 snapshot~;
#X floatatom 16 184 0 0 0 0 - - - 0;
#X obj 102 86 hsl 128 15 0 40 0 0 empty empty empty -2 -8 0 10 #fcfcfc
#000000 #000000 0 1;
#X obj 260 8 vsl 15 128 0.0001 0.03 0 0 empty empty empty 0 -9 0 10
#fcfcfc #000000 #000000 0 1;
#X floatatom 260 144 0 0 0 0 - - - 0;
#X obj 199 225 r myMet;
#X obj 199 248 snapshot~;
#X floatatom 200 271 0 0 0 0 - - - 0;
#X text 131 67 Speed;
#X text 299 96 diameter;
#X text 106 183 Strouhal No.;
#X obj 99 51 r speed;
#X obj 299 25 r diameter;
#X obj 99 132 line~;
#X msg 99 106 \$1 20;
#X obj 189 12 loadbang;
#X msg 189 36 0.01;
#X obj 27 56 loadbang;
#X msg 27 80 20;
#X connect 0 0 5 0;
#X connect 3 0 4 0;
#X connect 4 0 5 1;
#X connect 5 0 1 0;
#X connect 5 0 17 0;
#X connect 6 0 7 0;
#X connect 8 0 6 0;
#X connect 9 0 8 0;
#X connect 10 0 11 0;
#X connect 11 0 12 0;
#X connect 13 0 25 0;
#X connect 14 0 15 0;
#X connect 15 0 3 0;
#X connect 16 0 17 0;
#X connect 17 0 18 0;
#X connect 22 0 13 0;
#X connect 23 0 14 0;
#X connect 24 0 0 0;
#X connect 24 0 11 0;
#X connect 25 0 24 0;
#X connect 26 0 27 0;
#X connect 27 0 14 0;
#X connect 28 0 29 0;
#X connect 29 0 13 0;
