#N canvas 385 264 806 528 12;
#X obj 215 138 vcf~ 70;
#X obj 215 176 vcf~ 70;
#X obj 215 108 noise~;
#X obj 155 139 vsl 15 128 0.01 10 0 0 empty empty empty 0 -9 0 10 #fcfcfc
#000000 #000000 0 1;
#X floatatom 155 283 5 0 0 0 - - - 0;
#X text 35 202 Additional Gain;
#X obj 215 271 *~ 1;
#X obj 215 296 dac~;
#X obj 401 18 1_FreqCalc;
#X obj 292 102 r~ myFreq;
#X obj 401 41 2_DipoleAngle;
#X obj 215 211 *~;
#X obj 278 174 r~ myAngleGain;
#X connect 0 0 1 0;
#X connect 1 0 11 0;
#X connect 2 0 0 0;
#X connect 3 0 4 0;
#X connect 3 0 6 1;
#X connect 6 0 7 0;
#X connect 6 0 7 1;
#X connect 9 0 0 1;
#X connect 9 0 1 1;
#X connect 11 0 6 0;
#X connect 12 0 11 1;
