#N canvas 444 203 806 528 12;
#X obj 215 138 vcf~ 70;
#X obj 215 176 vcf~ 70;
#X obj 215 108 noise~;
#X obj 155 202 vsl 15 128 0.01 10 0 0 empty empty empty 0 -9 0 10 #fcfcfc
#000000 #000000 0 1;
#X floatatom 155 346 5 0 0 0 - - - 0;
#X text 35 202 Additional Gain;
#X obj 215 334 *~ 1;
#X obj 215 359 dac~;
#X obj 401 18 1_FreqCalc;
#X obj 292 102 r~ myFreq;
#X obj 401 41 2_DipoleAngle;
#X obj 215 211 *~;
#X obj 278 174 r~ myAngleGain;
#X obj 517 18 3_SpeedGainCalc;
#X obj 215 253 *~;
#X obj 265 219 r~ mySpGain;
#X obj 517 42 4_DistanceGainCalc;
#X obj 316 269 r~ myDistanceGain;
#X obj 215 299 /~;
#X obj 479 150 hsl 128 15 0 30 0 0 speed empty Speed -2 -8 0 10 #fcfcfc
#000000 #000000 0 1;
#X obj 479 185 hsl 128 15 0.0001 0.03 1 0 diameter empty Diameter -2
-8 0 10 #fcfcfc #000000 #000000 0 1;
#X obj 480 220 hsl 128 15 -180 180 0 0 angle empty Angle -2 -8 0 10
#fcfcfc #000000 #000000 0 1;
#X obj 480 257 hsl 128 15 1 10 0 0 distance empty Distance -2 -8 0
10 #fcfcfc #000000 #000000 0 1;
#X connect 0 0 1 0;
#X connect 1 0 11 0;
#X connect 2 0 0 0;
#X connect 3 0 4 0;
#X connect 3 0 6 1;
#X connect 6 0 7 0;
#X connect 6 0 7 1;
#X connect 9 0 0 1;
#X connect 9 0 1 1;
#X connect 11 0 14 0;
#X connect 12 0 11 1;
#X connect 14 0 18 0;
#X connect 15 0 14 1;
#X connect 17 0 18 1;
#X connect 18 0 6 0;
